<svg width="1200" height="260" viewBox="0 0 1200 260" xmlns="http://www.w3.org/2000/svg">
  <defs>
    <linearGradient id="bg" x1="0" y1="0" x2="1" y2="1">
      <stop offset="0" stop-color="#0b1220"/>
      <stop offset="1" stop-color="#0f1a30"/>
    </linearGradient>
    <clipPath id="r"><rect width="1200" height="260" rx="14"/></clipPath>
  </defs>
  <g clip-path="url(#r)">
    <rect width="1200" height="260" fill="url(#bg)"/>
    <g fill="#38bdf8">
      <rect x="860" y="112" width="10" height="36" rx="5"/>
      <rect x="884" y="86" width="10" height="88" rx="5"/>
      <rect x="908" y="60" width="10" height="140" rx="5"/>
      <rect x="932" y="96" width="10" height="68" rx="5"/>
      <rect x="956" y="76" width="10" height="108" rx="5"/>
      <rect x="980" y="106" width="10" height="48" rx="5"/>
    </g>
    <g fill="#f59e0b">
      <rect x="1004" y="90" width="10" height="80" rx="5"/>
      <rect x="1028" y="116" width="10" height="28" rx="5"/>
      <rect x="1052" y="102" width="10" height="56" rx="5"/>
    </g>
    <circle cx="965" cy="130" r="118" fill="none" stroke="#1e293b" stroke-width="2"/>
    <text x="64" y="122" font-family="ui-sans-serif,-apple-system,'Segoe UI',Helvetica,Arial,sans-serif" font-size="58" font-weight="800" fill="#e6edf3">FRIDAY</text>
    <text x="64" y="168" font-family="ui-sans-serif,-apple-system,'Segoe UI',Helvetica,Arial,sans-serif" font-size="23" fill="#8b98ab">A voice assistant that never leaves your laptop</text>
    <rect x="0" y="252" width="1200" height="8" fill="#38bdf8"/>
  </g>
</svg>
